{
  "accessors": [
    {
      "bufferView": 2,
      "componentType": 5126,
      "count": 600,
      "max": [
        1.0000002384185791,
        1,
        1
      ],
      "min": [
        -0.99999982118606567,
        -1.0000003576278687,
        -1
      ],
      "type": "VEC3"
    },
    {
      "bufferView": 2,
      "byteOffset": 7200,
      "componentType": 5126,
      "count": 600,
      "max": [
        1,
        1,
        1
      ],
      "min": [
        -1,
        -0.99988734722137451,
        -1
      ],
      "type": "VEC3"
    },
    {
      "bufferView": 1,
      "componentType": 5126,
      "count": 600,
      "max": [
        1.0000002384185791,
        1
      ],
      "min": [
        0,
        0
      ],
      "type": "VEC2"
    },
    {
      "bufferView": 0,
      "componentType": 5125,
      "count": 3081,
      "max": [
        599
      ],
      "min": [
        0
      ],
      "type": "SCALAR"
    },
    {
      "bufferView": 2,
      "byteOffset": 14400,
      "componentType": 5126,
      "count": 21,
      "max": [
        0.4460635781288147,
        -0.90337073802947998,
        -0.045046847313642502
      ],
      "min": [
        -0.4460635781288147,
        -0.99160903692245483,
        -0.29750612378120422
      ],
      "type": "VEC3"
    },
    {
      "bufferView": 2,
      "byteOffset": 14652,
      "componentType": 5126,
      "count": 21,
      "max": [
        0.57647806406021118,
        -0.80720359086990356,
        0.12686851620674133
      ],
      "min": [
        -0.57647806406021118,
        -0.99133586883544922,
        -0.3162081241607666
      ],
      "type": "VEC3"
    },
    {
      "bufferView": 1,
      "byteOffset": 4800,
      "componentType": 5126,
      "count": 21,
      "max": [
        0.29709571599960327,
        0.46948063373565674
      ],
      "min": [
        0.20290422439575195,
        0.40553048253059387
      ],
      "type": "VEC2"
    },
    {
      "bufferView": 0,
      "byteOffset": 12324,
      "componentType": 5125,
      "count": 60,
      "max": [
        20
      ],
      "min": [
        0
      ],
      "type": "SCALAR"
    },
    {
      "bufferView": 2,
      "byteOffset": 14904,
      "componentType": 5126,
      "count": 8,
      "max": [
        0.19327716529369354,
        -0.96362155675888062,
        -0.095273382961750031
      ],
      "min": [
        -0.19327734410762787,
        -0.9816398024559021,
        -0.17017370462417603
      ],
      "type": "VEC3"
    },
    {
      "bufferView": 2,
      "byteOffset": 15000,
      "componentType": 5126,
      "count": 8,
      "max": [
        0.17750169336795807,
        -0.96036171913146973,
        -0.072483927011489868
      ],
      "min": [
        -0.17750169336795807,
        -0.98408377170562744,
        -0.21866631507873535
      ],
      "type": "VEC3"
    },
    {
      "bufferView": 1,
      "byteOffset": 4968,
      "componentType": 5126,
      "count": 8,
      "max": [
        0.28124997019767761,
        0.46948060393333435
      ],
      "min": [
        0.21874997019767761,
        0.43749994039535522
      ],
      "type": "VEC2"
    },
    {
      "bufferView": 0,
      "byteOffset": 12564,
      "componentType": 5125,
      "count": 12,
      "max": [
        7
      ],
      "min": [
        0
      ],
      "type": "SCALAR"
    },
    {
      "bufferView": 2,
      "byteOffset": 15096,
      "componentType": 5126,
      "count": 3520,
      "max": [
        1.0000001192092896,
        3.9601280689239502,
        1.1053651571273804
      ],
      "min": [
        -5.0806584358215332,
        -0.47206181287765503,
        -0.9999968409538269
      ],
      "type": "VEC3"
    },
    {
      "bufferView": 2,
      "byteOffset": 57336,
      "componentType": 5126,
      "count": 3520,
      "max": [
        0.99865126609802246,
        0.99827736616134644,
        0.99299418926239014
      ],
      "min": [
        -0.99865114688873291,
        -0.99827736616134644,
        -0.99299407005310059
      ],
      "type": "VEC3"
    },
    {
      "bufferView": 1,
      "byteOffset": 5032,
      "componentType": 5126,
      "count": 3520,
      "max": [
        1.0000002384185791,
        0.93750011920928955
      ],
      "min": [
        0,
        0
      ],
      "type": "VEC2"
    },
    {
      "bufferView": 0,
      "byteOffset": 12612,
      "componentType": 5125,
      "count": 5184,
      "max": [
        3519
      ],
      "min": [
        0
      ],
      "type": "SCALAR"
    },
    {
      "bufferView": 2,
      "byteOffset": 99576,
      "componentType": 5126,
      "count": 512,
      "max": [
        0.55557042360305786,
        2.7241485118865967,
        0.67380136251449585
      ],
      "min": [
        -5.0328125953674316,
        -0.45696580410003662,
        -0.55556720495223999
      ],
      "type": "VEC3"
    },
    {
      "bufferView": 2,
      "byteOffset": 105720,
      "componentType": 5126,
      "count": 512,
      "max": [
        0.47088959813117981,
        -0.30377188324928284,
        0.47088968753814697
      ],
      "min": [
        -0.95136523246765137,
        -0.95654964447021484,
        -0.47088959813117981
      ],
      "type": "VEC3"
    },
    {
      "bufferView": 1,
      "byteOffset": 33192,
      "componentType": 5126,
      "count": 512,
      "max": [
        1.0000002384185791,
        0.92092007398605347
      ],
      "min": [
        5.9604644775390625e-08,
        0.81249988079071045
      ],
      "type": "VEC2"
    },
    {
      "bufferView": 0,
      "byteOffset": 33348,
      "componentType": 5125,
      "count": 768,
      "max": [
        511
      ],
      "min": [
        0
      ],
      "type": "SCALAR"
    },
    {
      "bufferView": 2,
      "byteOffset": 111864,
      "componentType": 5126,
      "count": 192,
      "max": [
        0.19509059190750122,
        2.2836503982543945,
        0.31645098328590393
      ],
      "min": [
        -4.8566102981567383,
        -0.49127650260925293,
        -0.19508731365203857
      ],
      "type": "VEC3"
    },
    {
      "bufferView": 2,
      "byteOffset": 114168,
      "componentType": 5126,
      "count": 192,
      "max": [
        0.098012484610080719,
        -0.54629224538803101,
        0.13659429550170898
      ],
      "min": [
        -0.83589804172515869,
        -0.99513858556747437,
        -0.098012983798980713
      ],
      "type": "VEC3"
    },
    {
      "bufferView": 1,
      "byteOffset": 37288,
      "componentType": 5126,
      "count": 192,
      "max": [
        1.0000002384185791,
        1
      ],
      "min": [
        2.384185791015625e-07,
        0.93749994039535522
      ],
      "type": "VEC2"
    },
    {
      "bufferView": 0,
      "byteOffset": 36420,
      "componentType": 5125,
      "count": 192,
      "max": [
        191
      ],
      "min": [
        0
      ],
      "type": "SCALAR"
    }
  ],
  "asset": {
    "extras": {
      "author": "Developer3.5Pro (https://sketchfab.com/Developer3.5Pro)",
      "license": "CC-BY-4.0 (http://creativecommons.org/licenses/by/4.0/)",
      "source": "https://sketchfab.com/3d-models/emoji-smiley-6f5a5088d39c422b889a25ca816c47e9",
      "title": "Emoji Smiley"
    },
    "generator": "Sketchfab-8.76.0",
    "version": "2.0"
  },
  "bufferViews": [
    {
      "buffer": 0,
      "byteLength": 37188,
      "byteOffset": 0,
      "name": "floatBufferViews",
      "target": 34963
    },
    {
      "buffer": 0,
      "byteLength": 38824,
      "byteOffset": 37188,
      "byteStride": 8,
      "name": "floatBufferViews",
      "target": 34962
    },
    {
      "buffer": 0,
      "byteLength": 116472,
      "byteOffset": 76012,
      "byteStride": 12,
      "name": "floatBufferViews",
      "target": 34962
    }
  ],
  "buffers": [
    {
      "byteLength": 192484,
      "uri": "scene.bin"
    }
  ],
  "materials": [
    {
      "doubleSided": true,
      "emissiveFactor": [
        0,
        0,
        0
      ],
      "name": "Yellow",
      "pbrMetallicRoughness": {
        "baseColorFactor": [
          1,
          0.96745000000000003,
          0,
          1
        ],
        "metallicFactor": 0,
        "roughnessFactor": 0.79774312563355754
      }
    },
    {
      "doubleSided": true,
      "emissiveFactor": [
        0,
        0,
        0
      ],
      "name": "Orange",
      "pbrMetallicRoughness": {
        "baseColorFactor": [
          0.80000000000000004,
          0.0597168,
          0.0336353,
          1
        ],
        "metallicFactor": 0,
        "roughnessFactor": 0.95187580919148951
      }
    },
    {
      "doubleSided": true,
      "emissiveFactor": [
        0,
        0,
        0
      ],
      "name": "Material.001",
      "pbrMetallicRoughness": {
        "baseColorFactor": [
          0.80000000000000004,
          0.80000000000000004,
          0.80000000000000004,
          1
        ],
        "metallicFactor": 0,
        "roughnessFactor": 0.82111456180001685
      }
    },
    {
      "doubleSided": true,
      "emissiveFactor": [
        0,
        0,
        0
      ],
      "name": "White",
      "pbrMetallicRoughness": {
        "baseColorFactor": [
          1,
          1,
          1,
          1
        ],
        "metallicFactor": 0,
        "roughnessFactor": 0.77639320225002106
      }
    },
    {
      "doubleSided": true,
      "emissiveFactor": [
        0,
        0,
        0
      ],
      "name": "Blue",
      "pbrMetallicRoughness": {
        "baseColorFactor": [
          0.0073061799999999998,
          0.076164200000000001,
          0.88292300000000001,
          1
        ],
        "metallicFactor": 0,
        "roughnessFactor": 0.97321794965242481
      }
    },
    {
      "doubleSided": true,
      "emissiveFactor": [
        0,
        0,
        0
      ],
      "name": "Black",
      "pbrMetallicRoughness": {
        "baseColorFactor": [
          0,
          0,
          0,
          1
        ],
        "metallicFactor": 0,
        "roughnessFactor": 1
      }
    }
  ],
  "meshes": [
    {
      "name": "Sphere_Yellow_0",
      "primitives": [
        {
          "attributes": {
            "NORMAL": 1,
            "POSITION": 0,
            "TEXCOORD_0": 2
          },
          "indices": 3,
          "material": 0,
          "mode": 4
        }
      ]
    },
    {
      "name": "Sphere_Orange_0",
      "primitives": [
        {
          "attributes": {
            "NORMAL": 5,
            "POSITION": 4,
            "TEXCOORD_0": 6
          },
          "indices": 7,
          "material": 1,
          "mode": 4
        }
      ]
    },
    {
      "name": "Sphere_Material.001_0",
      "primitives": [
        {
          "attributes": {
            "NORMAL": 9,
            "POSITION": 8,
            "TEXCOORD_0": 10
          },
          "indices": 11,
          "material": 2,
          "mode": 4
        }
      ]
    },
    {
      "name": "Sphere.001_White_0",
      "primitives": [
        {
          "attributes": {
            "NORMAL": 13,
            "POSITION": 12,
            "TEXCOORD_0": 14
          },
          "indices": 15,
          "material": 3,
          "mode": 4
        }
      ]
    },
    {
      "name": "Sphere.001_Blue_0",
      "primitives": [
        {
          "attributes": {
            "NORMAL": 17,
            "POSITION": 16,
            "TEXCOORD_0": 18
          },
          "indices": 19,
          "material": 4,
          "mode": 4
        }
      ]
    },
    {
      "name": "Sphere.001_Black_0",
      "primitives": [
        {
          "attributes": {
            "NORMAL": 21,
            "POSITION": 20,
            "TEXCOORD_0": 22
          },
          "indices": 23,
          "material": 5,
          "mode": 4
        }
      ]
    }
  ],
  "nodes": [
    {
      "children": [
        1
      ],
      "name": "RootNode (gltf orientation matrix)",
      "rotation": [
        -0.70710678118654746,
        -0,
        -0,
        0.70710678118654757
      ]
    },
    {
      "children": [
        2
      ],
      "name": "RootNode (model correction matrix)"
    },
    {
      "children": [
        3
      ],
      "matrix": [
        1,
        0,
        0,
        0,
        0,
        0,
        1,
        0,
        0,
        -1,
        0,
        0,
        0,
        0,
        0,
        1
      ],
      "name": "17d806da15f447578819d4080d4c8129.fbx"
    },
    {
      "children": [
        4,
        8
      ],
      "name": "RootNode"
    },
    {
      "children": [
        5,
        6,
        7
      ],
      "matrix": [
        100,
        0,
        0,
        0,
        0,
        -1.6292067939183141e-05,
        -99.999999999998678,
        0,
        0,
        99.999999999998678,
        -1.6292067939183141e-05,
        0,
        0,
        0,
        0,
        1
      ],
      "name": "Sphere"
    },
    {
      "mesh": 0,
      "name": "Sphere_Yellow_0"
    },
    {
      "mesh": 1,
      "name": "Sphere_Orange_0"
    },
    {
      "mesh": 2,
      "name": "Sphere_Material.001_0"
    },
    {
      "children": [
        9,
        10,
        11
      ],
      "matrix": [
        17.149982065803194,
        -1.5068539398047889,
        -6.9974412102428891,
        0,
        -5.4208824975832517,
        -4.105467715296566,
        -12.401918759361878,
        0,
        -1.1368278800825447,
        28.378548983997888,
        -8.8973818038894255,
        0,
        44.942638397216797,
        33.732025146484375,
        85.681602478027344,
        1
      ],
      "name": "Sphere.001"
    },
    {
      "mesh": 3,
      "name": "Sphere.001_White_0"
    },
    {
      "mesh": 4,
      "name": "Sphere.001_Blue_0"
    },
    {
      "mesh": 5,
      "name": "Sphere.001_Black_0"
    }
  ],
  "scene": 0,
  "scenes": [
    {
      "name": "OSG_Scene",
      "nodes": [
        0
      ]
    }
  ]
}

